<svg width="124" height="124" viewBox="0 0 124 124" fill="none" xmlns="http://www.w3.org/2000/svg">
<rect x="6" y="6" width="112" height="112" rx="56" fill="#F3F8FE"/>
<path d="M62.03 38.6666C55.9166 38.6666 50.9466 43.6366 50.9466 49.75C50.9466 55.7466 55.6366 60.6 61.75 60.81C61.9366 60.7866 62.1233 60.7866 62.2633 60.81C62.31 60.81 62.3333 60.81 62.38 60.81C62.4033 60.81 62.4033 60.81 62.4266 60.81C68.4 60.6 73.09 55.7466 73.1133 49.75C73.1133 43.6366 68.1433 38.6666 62.03 38.6666Z" fill="#1A96F0"/>
<path d="M73.8832 67.0166C67.3732 62.6766 56.7565 62.6766 50.1999 67.0166C47.2365 68.9999 45.6032 71.6833 45.6032 74.5533C45.6032 77.4233 47.2365 80.0833 50.1765 82.0433C53.4432 84.2366 57.7365 85.3333 62.0299 85.3333C66.3232 85.3333 70.6165 84.2366 73.8832 82.0433C76.8232 80.0599 78.4565 77.3999 78.4565 74.5066C78.4332 71.6366 76.8232 68.9766 73.8832 67.0166Z" fill="#1A96F0"/>
<path d="M87.673 51.1266C88.0463 55.6533 84.8263 59.6199 80.3696 60.1566C80.3463 60.1566 80.3463 60.1566 80.323 60.1566H80.253C80.113 60.1566 79.973 60.1566 79.8563 60.2033C77.593 60.3199 75.5163 59.5966 73.953 58.2666C76.3563 56.1199 77.733 52.8999 77.453 49.3999C77.2896 47.5099 76.6363 45.7833 75.6563 44.3133C76.543 43.8699 77.5696 43.5899 78.6196 43.4966C83.193 43.0999 87.2763 46.5066 87.673 51.1266Z" fill="#1A96F0"/>
<path d="M92.3405 72.71C92.1538 74.9734 90.7072 76.9334 88.2805 78.2634C85.9472 79.5467 83.0072 80.1534 80.0905 80.0834C81.7705 78.5667 82.7505 76.6767 82.9372 74.67C83.1705 71.7767 81.7938 69 79.0405 66.7834C77.4772 65.5467 75.6572 64.5667 73.6738 63.8434C78.8305 62.35 85.3172 63.3534 89.3072 66.5734C91.4538 68.3 92.5505 70.47 92.3405 72.71Z" fill="#1A96F0"/>
<path d="M36.3596 51.1266C35.9863 55.6533 39.2063 59.6199 43.6629 60.1566C43.6863 60.1566 43.6863 60.1566 43.7096 60.1566H43.7796C43.9196 60.1566 44.0596 60.1566 44.1763 60.2033C46.4396 60.3199 48.5163 59.5966 50.0796 58.2666C47.6763 56.1199 46.2996 52.8999 46.5796 49.3999C46.7429 47.5099 47.3963 45.7833 48.3763 44.3133C47.4896 43.8699 46.4629 43.5899 45.4129 43.4966C40.8396 43.0999 36.7563 46.5066 36.3596 51.1266Z" fill="#1A96F0"/>
<path d="M31.6921 72.71C31.8787 74.9734 33.3254 76.9334 35.7521 78.2634C38.0854 79.5467 41.0254 80.1534 43.9421 80.0834C42.2621 78.5667 41.2821 76.6767 41.0954 74.67C40.8621 71.7767 42.2387 69 44.9921 66.7834C46.5554 65.5467 48.3754 64.5667 50.3587 63.8434C45.2021 62.35 38.7154 63.3534 34.7254 66.5734C32.5787 68.3 31.4821 70.47 31.6921 72.71Z" fill="#1A96F0"/>
<rect x="6" y="6" width="112" height="112" rx="56" stroke="white" stroke-width="12"/>
</svg>
